# xmcd
#
# Track frame offsets: 
#        150
#        12564
#        31933
#        45544
#        58354
#        74038
#        89810
#        108750
#        126622
#
# Disc length: 1924 seconds
#
# Revision: 0
# Processed by: cddbd v1.5.2PL0 Copyright (c) Steve Scherf et al.
# Submitted via: ExactAudioCopy v1.3
#
DISCID=89078209
DTITLE=David Gogo - Christmas With The Blues
DYEAR=2012
DGENRE=Blues
TTITLE0=Christmas Blues
TTITLE1=Christmas On The Bayou
TTITLE2=Christmas Tears
TTITLE3=Let's Get A Real Tree
TTITLE4=Please Come Home For Christmas
TTITLE5=Santa Claus Is Back In Town
TTITLE6=Merry Christmas Baby
TTITLE7=Little Drummer Boy
TTITLE8=Santa Claus Wants Some Lovin'
EXTD=
EXTT0=
EXTT1=
EXTT2=
EXTT3=
EXTT4=
EXTT5=
EXTT6=
EXTT7=
EXTT8=
PLAYORDER=
